<mxfile host="app.diagrams.net" modified="2022-03-12T11:24:04.911Z" agent="5.0 (Windows)" etag="izbAs6Quao6uL2wglGPR" version="16.5.2" type="github">
  <diagram id="yvzoBptggQPnOKsNAKRa" name="Page-1">
    <mxGraphModel dx="1800" dy="640" grid="1" gridSize="10" guides="1" tooltips="1" connect="1" arrows="1" fold="1" page="0" pageScale="1" pageWidth="827" pageHeight="1169" math="0" shadow="0">
      <root>
        <mxCell id="0" />
        <mxCell id="1" parent="0" />
        <mxCell id="sCtYjEgdX3SQ9N3O2w9s-12" value="MCB" style="swimlane;" parent="1" vertex="1">
          <mxGeometry x="30.4" y="70" width="689.6" height="330" as="geometry" />
        </mxCell>
        <mxCell id="sCtYjEgdX3SQ9N3O2w9s-9" value="MCB TER Cabinet 1" style="swimlane;" parent="sCtYjEgdX3SQ9N3O2w9s-12" vertex="1">
          <mxGeometry x="19.6" y="40" width="200" height="280" as="geometry" />
        </mxCell>
        <mxCell id="sCtYjEgdX3SQ9N3O2w9s-10" value="&lt;div&gt;CCTV Access SW 1&lt;br&gt;&lt;/div&gt;&lt;div&gt;C9300-48S&lt;/div&gt;&lt;div&gt;C9500-NM-8X&lt;br&gt;&lt;/div&gt;" style="shape=mxgraph.cisco.switches.workgroup_switch;sketch=0;html=1;pointerEvents=1;dashed=0;fillColor=#036897;strokeColor=#ffffff;strokeWidth=2;verticalLabelPosition=bottom;verticalAlign=top;align=center;outlineConnect=0;" parent="sCtYjEgdX3SQ9N3O2w9s-9" vertex="1">
          <mxGeometry x="59.6" y="170" width="80.8" height="40" as="geometry" />
        </mxCell>
        <mxCell id="sCtYjEgdX3SQ9N3O2w9s-11" value="&lt;div&gt;Distrib SW 1&lt;br&gt;&lt;/div&gt;&lt;div&gt;C9500-40X&lt;br&gt;&lt;/div&gt;&lt;div&gt;C9500-NM-8X&lt;br&gt;&lt;/div&gt;" style="shape=mxgraph.cisco.switches.layer_3_switch;sketch=0;html=1;pointerEvents=1;dashed=0;fillColor=#036897;strokeColor=#ffffff;strokeWidth=2;verticalLabelPosition=bottom;verticalAlign=top;align=center;outlineConnect=0;" parent="sCtYjEgdX3SQ9N3O2w9s-9" vertex="1">
          <mxGeometry x="67.99999999999997" y="40" width="64" height="64" as="geometry" />
        </mxCell>
        <mxCell id="sCtYjEgdX3SQ9N3O2w9s-8" value="MCB TER Cabinet 2" style="swimlane;" parent="sCtYjEgdX3SQ9N3O2w9s-12" vertex="1">
          <mxGeometry x="244.8" y="40" width="200" height="280" as="geometry" />
        </mxCell>
        <mxCell id="sCtYjEgdX3SQ9N3O2w9s-4" value="&lt;div&gt;CCTV Access SW 2&lt;br&gt;&lt;/div&gt;&lt;div&gt;C9300-48S&lt;/div&gt;&lt;div&gt;C9500-NM-8X&lt;br&gt;&lt;/div&gt;" style="shape=mxgraph.cisco.switches.workgroup_switch;sketch=0;html=1;pointerEvents=1;dashed=0;fillColor=#036897;strokeColor=#ffffff;strokeWidth=2;verticalLabelPosition=bottom;verticalAlign=top;align=center;outlineConnect=0;" parent="sCtYjEgdX3SQ9N3O2w9s-8" vertex="1">
          <mxGeometry x="59.6" y="170" width="80.8" height="40" as="geometry" />
        </mxCell>
        <mxCell id="sCtYjEgdX3SQ9N3O2w9s-2" value="&lt;div&gt;Distrib SW 2&lt;br&gt;&lt;/div&gt;&lt;div&gt;C9500-40X&lt;/div&gt;&lt;div&gt;C9500-NM-8X&lt;br&gt;&lt;/div&gt;" style="shape=mxgraph.cisco.switches.layer_3_switch;sketch=0;html=1;pointerEvents=1;dashed=0;fillColor=#036897;strokeColor=#ffffff;strokeWidth=2;verticalLabelPosition=bottom;verticalAlign=top;align=center;outlineConnect=0;" parent="sCtYjEgdX3SQ9N3O2w9s-8" vertex="1">
          <mxGeometry x="67.99999999999997" y="40" width="64" height="64" as="geometry" />
        </mxCell>
        <mxCell id="sCtYjEgdX3SQ9N3O2w9s-7" value="MCB TER Cabinet 3" style="swimlane;" parent="sCtYjEgdX3SQ9N3O2w9s-12" vertex="1">
          <mxGeometry x="469.6" y="40" width="200" height="200" as="geometry" />
        </mxCell>
        <mxCell id="sCtYjEgdX3SQ9N3O2w9s-5" value="&lt;div&gt;CCTV Access SW&lt;br&gt;&lt;/div&gt;&lt;div&gt;C9300-48P&lt;/div&gt;&lt;div&gt;&lt;div&gt;C9300-NM-4G&lt;/div&gt;&lt;/div&gt;" style="shape=mxgraph.cisco.switches.workgroup_switch;sketch=0;html=1;pointerEvents=1;dashed=0;fillColor=#036897;strokeColor=#ffffff;strokeWidth=2;verticalLabelPosition=bottom;verticalAlign=top;align=center;outlineConnect=0;" parent="sCtYjEgdX3SQ9N3O2w9s-7" vertex="1">
          <mxGeometry x="50" y="80" width="80.8" height="40" as="geometry" />
        </mxCell>
        <mxCell id="sCtYjEgdX3SQ9N3O2w9s-15" value="MOB" style="swimlane;" parent="1" vertex="1">
          <mxGeometry x="780" y="142.5" width="300" height="207.5" as="geometry" />
        </mxCell>
        <mxCell id="sCtYjEgdX3SQ9N3O2w9s-13" value="MOB SCR" style="swimlane;" parent="sCtYjEgdX3SQ9N3O2w9s-15" vertex="1">
          <mxGeometry x="15.2" y="30" width="150" height="160" as="geometry" />
        </mxCell>
        <mxCell id="sCtYjEgdX3SQ9N3O2w9s-6" value="&lt;div&gt;Access SW&lt;/div&gt;&lt;div&gt;C9300-24P&lt;/div&gt;&lt;div&gt;&lt;div&gt;C9300-NM-4G&lt;/div&gt;&lt;/div&gt;" style="shape=mxgraph.cisco.switches.workgroup_switch;sketch=0;html=1;pointerEvents=1;dashed=0;fillColor=#036897;strokeColor=#ffffff;strokeWidth=2;verticalLabelPosition=bottom;verticalAlign=top;align=center;outlineConnect=0;" parent="sCtYjEgdX3SQ9N3O2w9s-13" vertex="1">
          <mxGeometry x="34.39999999999999" y="50" width="80.8" height="40" as="geometry" />
        </mxCell>
        <mxCell id="sCtYjEgdX3SQ9N3O2w9s-14" value="&lt;div&gt;Access SW&lt;/div&gt;&lt;div&gt;C9300-24P&lt;/div&gt;&lt;div&gt;&lt;div&gt;C9300-NM-4G&lt;/div&gt;&lt;/div&gt;" style="shape=mxgraph.cisco.switches.workgroup_switch;sketch=0;html=1;pointerEvents=1;dashed=0;fillColor=#036897;strokeColor=#ffffff;strokeWidth=2;verticalLabelPosition=bottom;verticalAlign=top;align=center;outlineConnect=0;" parent="sCtYjEgdX3SQ9N3O2w9s-15" vertex="1">
          <mxGeometry x="190" y="80" width="80.8" height="40" as="geometry" />
        </mxCell>
        <mxCell id="sCtYjEgdX3SQ9N3O2w9s-18" value="LAB" style="swimlane;" parent="1" vertex="1">
          <mxGeometry x="470" y="480" width="150" height="140" as="geometry" />
        </mxCell>
        <mxCell id="sCtYjEgdX3SQ9N3O2w9s-19" value="&lt;div&gt;Access SW&lt;/div&gt;&lt;div&gt;C9300-24P&lt;br&gt;&lt;div&gt;C9300-NM-4G&lt;/div&gt;&lt;/div&gt;" style="shape=mxgraph.cisco.switches.workgroup_switch;sketch=0;html=1;pointerEvents=1;dashed=0;fillColor=#036897;strokeColor=#ffffff;strokeWidth=2;verticalLabelPosition=bottom;verticalAlign=top;align=center;outlineConnect=0;" parent="sCtYjEgdX3SQ9N3O2w9s-18" vertex="1">
          <mxGeometry x="34.599999999999994" y="40" width="80.8" height="40" as="geometry" />
        </mxCell>
        <mxCell id="sCtYjEgdX3SQ9N3O2w9s-20" value="GATE 2" style="swimlane;" parent="1" vertex="1">
          <mxGeometry x="270" y="480" width="150" height="140" as="geometry" />
        </mxCell>
        <mxCell id="sCtYjEgdX3SQ9N3O2w9s-21" value="&lt;div&gt;Access SW&lt;/div&gt;&lt;div&gt;C9300-24P&lt;/div&gt;&lt;div&gt;&lt;div&gt;C9300-NM-4G&lt;/div&gt;&lt;/div&gt;" style="shape=mxgraph.cisco.switches.workgroup_switch;sketch=0;html=1;pointerEvents=1;dashed=0;fillColor=#036897;strokeColor=#ffffff;strokeWidth=2;verticalLabelPosition=bottom;verticalAlign=top;align=center;outlineConnect=0;" parent="sCtYjEgdX3SQ9N3O2w9s-20" vertex="1">
          <mxGeometry x="34.39999999999999" y="40" width="80.8" height="40" as="geometry" />
        </mxCell>
        <mxCell id="sCtYjEgdX3SQ9N3O2w9s-22" value="CLP" style="swimlane;" parent="1" vertex="1">
          <mxGeometry x="-190" y="275" width="150" height="140" as="geometry" />
        </mxCell>
        <mxCell id="sCtYjEgdX3SQ9N3O2w9s-23" value="&lt;div&gt;Access SW&lt;/div&gt;&lt;div&gt;C9300-24P&lt;br&gt;&lt;div&gt;C9300-NM-4G&lt;/div&gt;&lt;/div&gt;" style="shape=mxgraph.cisco.switches.workgroup_switch;sketch=0;html=1;pointerEvents=1;dashed=0;fillColor=#036897;strokeColor=#ffffff;strokeWidth=2;verticalLabelPosition=bottom;verticalAlign=top;align=center;outlineConnect=0;" parent="sCtYjEgdX3SQ9N3O2w9s-22" vertex="1">
          <mxGeometry x="34.599999999999994" y="35" width="80.8" height="40" as="geometry" />
        </mxCell>
        <mxCell id="sCtYjEgdX3SQ9N3O2w9s-24" value="GATEHOUSE 1" style="swimlane;" parent="1" vertex="1">
          <mxGeometry x="85" y="480" width="150" height="140" as="geometry" />
        </mxCell>
        <mxCell id="sCtYjEgdX3SQ9N3O2w9s-25" value="&lt;div&gt;Access SW&lt;/div&gt;&lt;div&gt;C9300-48P&lt;br&gt;&lt;div&gt;C9300-NM-4G&lt;/div&gt;&lt;/div&gt;" style="shape=mxgraph.cisco.switches.workgroup_switch;sketch=0;html=1;pointerEvents=1;dashed=0;fillColor=#036897;strokeColor=#ffffff;strokeWidth=2;verticalLabelPosition=bottom;verticalAlign=top;align=center;outlineConnect=0;" parent="sCtYjEgdX3SQ9N3O2w9s-24" vertex="1">
          <mxGeometry x="34.39999999999999" y="40" width="80.8" height="40" as="geometry" />
        </mxCell>
        <mxCell id="sCtYjEgdX3SQ9N3O2w9s-26" value="GATE 7" style="swimlane;" parent="1" vertex="1">
          <mxGeometry x="85" y="650" width="150" height="140" as="geometry" />
        </mxCell>
        <mxCell id="sCtYjEgdX3SQ9N3O2w9s-27" value="&lt;div&gt;Access SW&lt;/div&gt;&lt;div&gt;IE-3200-8P2S-E&lt;br&gt;&lt;/div&gt;" style="shape=mxgraph.cisco.switches.workgroup_switch;sketch=0;html=1;pointerEvents=1;dashed=0;fillColor=#036897;strokeColor=#ffffff;strokeWidth=2;verticalLabelPosition=bottom;verticalAlign=top;align=center;outlineConnect=0;" parent="sCtYjEgdX3SQ9N3O2w9s-26" vertex="1">
          <mxGeometry x="34.39999999999999" y="50" width="80.8" height="40" as="geometry" />
        </mxCell>
        <mxCell id="sCtYjEgdX3SQ9N3O2w9s-28" value="GATE 3" style="swimlane;" parent="1" vertex="1">
          <mxGeometry x="270" y="650" width="150" height="150" as="geometry" />
        </mxCell>
        <mxCell id="sCtYjEgdX3SQ9N3O2w9s-29" value="&lt;div&gt;Access SW&lt;/div&gt;&lt;div&gt;IE-3300-8P2S-E&lt;br&gt;IEM-3300-8P&lt;br&gt;&lt;/div&gt;" style="shape=mxgraph.cisco.switches.workgroup_switch;sketch=0;html=1;pointerEvents=1;dashed=0;fillColor=#036897;strokeColor=#ffffff;strokeWidth=2;verticalLabelPosition=bottom;verticalAlign=top;align=center;outlineConnect=0;" parent="sCtYjEgdX3SQ9N3O2w9s-28" vertex="1">
          <mxGeometry x="34.39999999999999" y="50" width="80.8" height="40" as="geometry" />
        </mxCell>
        <mxCell id="sCtYjEgdX3SQ9N3O2w9s-30" value="&lt;div&gt;C9300-NM-4G&lt;/div&gt;&lt;div&gt;C9300-NM-4G&lt;/div&gt;&lt;div&gt;C9300-NM-4G&lt;/div&gt;&lt;div&gt;C9300-NM-4G&lt;/div&gt;&lt;div&gt;C9300-NM-4G&lt;/div&gt;&lt;div&gt;C9300-NM-4G&lt;/div&gt;&lt;div&gt;C9300-NM-4G&lt;/div&gt;&lt;div&gt;C9300-NM-4G&lt;br&gt;&lt;/div&gt;" style="text;html=1;align=center;verticalAlign=middle;resizable=0;points=[];autosize=1;strokeColor=none;fillColor=none;" parent="1" vertex="1">
          <mxGeometry x="-415" y="230" width="90" height="120" as="geometry" />
        </mxCell>
        <mxCell id="sCtYjEgdX3SQ9N3O2w9s-31" value="GATE 4" style="swimlane;" parent="1" vertex="1">
          <mxGeometry x="470" y="655" width="150" height="150" as="geometry" />
        </mxCell>
        <mxCell id="sCtYjEgdX3SQ9N3O2w9s-32" value="&lt;div&gt;Access SW&lt;/div&gt;&lt;div&gt;IE-3300-8P2S-E&lt;br&gt;IEM-3300-8P&lt;br&gt;&lt;/div&gt;" style="shape=mxgraph.cisco.switches.workgroup_switch;sketch=0;html=1;pointerEvents=1;dashed=0;fillColor=#036897;strokeColor=#ffffff;strokeWidth=2;verticalLabelPosition=bottom;verticalAlign=top;align=center;outlineConnect=0;" parent="sCtYjEgdX3SQ9N3O2w9s-31" vertex="1">
          <mxGeometry x="34.39999999999999" y="55" width="80.8" height="40" as="geometry" />
        </mxCell>
        <mxCell id="sCtYjEgdX3SQ9N3O2w9s-33" value="GATEHOUSE 5 JETTY" style="swimlane;" parent="1" vertex="1">
          <mxGeometry x="-100" y="480" width="150" height="140" as="geometry" />
        </mxCell>
        <mxCell id="sCtYjEgdX3SQ9N3O2w9s-34" value="&lt;div&gt;Access SW&lt;/div&gt;&lt;div&gt;C9300-24P&lt;br&gt;&lt;div&gt;C9300-NM-4G&lt;/div&gt;&lt;/div&gt;" style="shape=mxgraph.cisco.switches.workgroup_switch;sketch=0;html=1;pointerEvents=1;dashed=0;fillColor=#036897;strokeColor=#ffffff;strokeWidth=2;verticalLabelPosition=bottom;verticalAlign=top;align=center;outlineConnect=0;" parent="sCtYjEgdX3SQ9N3O2w9s-33" vertex="1">
          <mxGeometry x="34.599999999999994" y="40" width="80.8" height="40" as="geometry" />
        </mxCell>
        <mxCell id="sCtYjEgdX3SQ9N3O2w9s-35" value="GATE 6" style="swimlane;" parent="1" vertex="1">
          <mxGeometry x="-100" y="650" width="150" height="150" as="geometry" />
        </mxCell>
        <mxCell id="sCtYjEgdX3SQ9N3O2w9s-36" value="&lt;div&gt;Access SW&lt;/div&gt;&lt;div&gt;IE-3300-8P2S-E&lt;br&gt;IEM-3300-8P&lt;br&gt;&lt;/div&gt;" style="shape=mxgraph.cisco.switches.workgroup_switch;sketch=0;html=1;pointerEvents=1;dashed=0;fillColor=#036897;strokeColor=#ffffff;strokeWidth=2;verticalLabelPosition=bottom;verticalAlign=top;align=center;outlineConnect=0;" parent="sCtYjEgdX3SQ9N3O2w9s-35" vertex="1">
          <mxGeometry x="34.39999999999999" y="50" width="80.8" height="40" as="geometry" />
        </mxCell>
        <mxCell id="sCtYjEgdX3SQ9N3O2w9s-37" value="SENSOR SITE 1" style="swimlane;" parent="1" vertex="1">
          <mxGeometry x="-390" y="380" width="150" height="150" as="geometry" />
        </mxCell>
        <mxCell id="sCtYjEgdX3SQ9N3O2w9s-38" value="&lt;div&gt;Access SW&lt;/div&gt;&lt;div&gt;IE-3300-8P2S-E&lt;br&gt;IEM-3300-8P&lt;br&gt;&lt;/div&gt;" style="shape=mxgraph.cisco.switches.workgroup_switch;sketch=0;html=1;pointerEvents=1;dashed=0;fillColor=#036897;strokeColor=#ffffff;strokeWidth=2;verticalLabelPosition=bottom;verticalAlign=top;align=center;outlineConnect=0;" parent="sCtYjEgdX3SQ9N3O2w9s-37" vertex="1">
          <mxGeometry x="34.39999999999999" y="50" width="80.8" height="40" as="geometry" />
        </mxCell>
        <mxCell id="sCtYjEgdX3SQ9N3O2w9s-39" value="SENSOR SITE 2" style="swimlane;" parent="1" vertex="1">
          <mxGeometry x="-190" y="110" width="150" height="150" as="geometry" />
        </mxCell>
        <mxCell id="sCtYjEgdX3SQ9N3O2w9s-40" value="&lt;div&gt;Access SW&lt;/div&gt;&lt;div&gt;IE-3300-8P2S-E&lt;br&gt;IEM-3300-8P&lt;br&gt;&lt;/div&gt;" style="shape=mxgraph.cisco.switches.workgroup_switch;sketch=0;html=1;pointerEvents=1;dashed=0;fillColor=#036897;strokeColor=#ffffff;strokeWidth=2;verticalLabelPosition=bottom;verticalAlign=top;align=center;outlineConnect=0;" parent="sCtYjEgdX3SQ9N3O2w9s-39" vertex="1">
          <mxGeometry x="34.39999999999999" y="50" width="80.8" height="40" as="geometry" />
        </mxCell>
      </root>
    </mxGraphModel>
  </diagram>
</mxfile>
